<?xml version="1.0" encoding="UTF-8"?>
<!DOCTYPE svg PUBLIC "-//W3C//DTD SVG 1.1//EN" "http://www.w3.org/Graphics/SVG/1.1/DTD/svg11.dtd">
<svg version="1.1" xmlns="http://www.w3.org/2000/svg" xmlns:xlink="http://www.w3.org/1999/xlink" x="0" y="0" width="35" height="35" viewBox="0, 0, 35, 35">
  <g id="answered">
    <path d="M17.5,0 C27.165,0 35,7.835 35,17.5 C35,27.165 27.165,35 17.5,35 C7.835,35 0,27.165 0,17.5 C0,7.835 7.835,0 17.5,0 z M17.5,2 C8.94,2 2,8.94 2,17.5 C2,26.06 8.94,33 17.5,33 C26.06,33 33,26.06 33,17.5 C33,8.94 26.06,2 17.5,2 z" fill="#5DBA7D"/>
    <path d="M10.135,15.26 L6.628,19.186 L14.979,26.648 L29.232,13.863 L25.775,9.894 L14.979,19.651 z" fill="#5EBA7D"/>
  </g>
</svg>
