<?xml version="1.0" encoding="UTF-8"?>
<!DOCTYPE svg PUBLIC "-//W3C//DTD SVG 1.1//EN" "http://www.w3.org/Graphics/SVG/1.1/DTD/svg11.dtd">
<svg version="1.1" xmlns="http://www.w3.org/2000/svg" xmlns:xlink="http://www.w3.org/1999/xlink" x="0" y="0" width="140" height="105" viewBox="0, 0, 140, 105">
  <g id="answered">
    <path d="M17.5,0 C27.165,0 35,7.835 35,17.5 C35,27.165 27.165,35 17.5,35 C7.835,35 0,27.165 0,17.5 C0,7.835 7.835,0 17.5,0 z M17.5,2 C8.94,2 2,8.94 2,17.5 C2,26.06 8.94,33 17.5,33 C26.06,33 33,26.06 33,17.5 C33,8.94 26.06,2 17.5,2 z" fill="#5DBA7D"/>
    <path d="M10.135,15.26 L6.628,19.186 L14.979,26.648 L29.232,13.863 L25.775,9.894 L14.979,19.651 z" fill="#5EBA7D"/>
    <path d="M7.947,84.081 L3.454,89.11 L14.15,98.667 L32.405,82.292 L27.978,77.208 L14.15,89.705 z" fill="#5EBA7D"/>
    <path d="M52.5,79.594 C57.108,79.594 60.844,83.329 60.844,87.937 C60.844,92.546 57.108,96.281 52.5,96.281 C47.892,96.281 44.156,92.546 44.156,87.937 C44.156,83.329 47.892,79.594 52.5,79.594 z M52.5,81.094 C48.72,81.094 45.656,84.158 45.656,87.937 C45.656,91.717 48.72,94.781 52.5,94.781 C56.28,94.781 59.344,91.717 59.344,87.937 C59.344,84.158 56.28,81.094 52.5,81.094 z" fill="#5DBA7D"/>
    <path d="M48.989,86.869 L47.316,88.741 L51.298,92.299 L58.094,86.204 L56.446,84.311 L51.298,88.963 z" fill="#5EBA7D"/>
    <g>
      <path d="M99.874,5.126 C106.709,11.96 106.709,23.04 99.874,29.874 C93.04,36.709 81.96,36.709 75.126,29.874 C68.291,23.04 68.291,11.96 75.126,5.126 C81.96,-1.709 93.04,-1.709 99.874,5.126" fill="#EFEFEF"/>
      <path d="M94.967,21.625 L87.5,10.225 L80.033,21.625 z M94.967,21.425" fill="#9A9A9A"/>
    </g>
    <path d="M99.874,40.126 C106.709,46.96 106.709,58.04 99.874,64.874 C93.04,71.709 81.96,71.709 75.126,64.874 C68.291,58.04 68.291,46.96 75.126,40.126 C81.96,33.291 93.04,33.291 99.874,40.126" fill="#D6F5E6"/>
    <path d="M94.967,56.625 L87.5,45.225 L80.033,56.625 z M94.967,56.425" fill="#9A9A9A"/>
    <g>
      <path d="M40.126,29.874 C33.291,23.04 33.291,11.96 40.126,5.126 C46.96,-1.709 58.04,-1.709 64.874,5.126 C71.709,11.96 71.709,23.04 64.874,29.874 C58.04,36.709 46.96,36.709 40.126,29.874" fill="#EFEFEF"/>
      <path d="M45.033,13.375 L52.5,24.775 L59.967,13.375 z M45.033,13.575" fill="#9A9A9A"/>
    </g>
    <path d="M40.126,64.874 C33.291,58.04 33.291,46.96 40.126,40.126 C46.96,33.291 58.04,33.291 64.874,40.126 C71.709,46.96 71.709,58.04 64.874,64.874 C58.04,71.709 46.96,71.709 40.126,64.874" fill="#F9DEDE"/>
    <path d="M45.033,48.375 L52.5,59.775 L59.967,48.375 z M45.033,48.575" fill="#9A9A9A"/>
    <path d="M4.75,45.839 L4.75,56.07 L14.255,65.25 L30.25,49.44 L30.25,39.75 L14.255,55.56 z" fill="#5EBA7D"/>
    <path d="M108,60 L137,60 L122.5,45 z" fill="#AAAAAA"/>
    <path d="M137,10.771 L108,10.771 L122.5,25.771 z" fill="#AAAAAA"/>
  </g>
</svg>
